<svg xmlns="http://www.w3.org/2000/svg" viewBox="0 0 640 360" width="640" height="360" role="img"><defs>
  <linearGradient id="bg4" x1="0" y1="0" x2="1" y2="1">
    <stop offset="0" stop-color="#0b1122"/><stop offset="1" stop-color="#070b15"/></linearGradient>
  <linearGradient id="acc4" x1="0" y1="0" x2="1" y2="1">
    <stop offset="0" stop-color="#38e0c8"/><stop offset="1" stop-color="#4d8dff"/></linearGradient>
  <radialGradient id="gl4" cx="0.5" cy="0.46" r="0.5">
    <stop offset="0" stop-color="#4d8dff" stop-opacity="0.18"/><stop offset="1" stop-color="#4d8dff" stop-opacity="0"/></radialGradient>
</defs>
<style>
  .gs { stroke:url(#acc4); stroke-width:3.2; fill:none; stroke-linecap:round; stroke-linejoin:round; }
  .gd { stroke:#6f87b5; stroke-opacity:.5; stroke-width:2.4; fill:none; stroke-linecap:round; stroke-linejoin:round; }
  .gf { fill:url(#acc4); } .gfd { fill:#6f87b5; fill-opacity:.5; }
  .cat { font-family:'JetBrains Mono', ui-monospace, monospace; font-size:13px; fill:#38e0c8; letter-spacing:1.2px; }
  .spin { animation:spin 14s linear infinite; }
  .travel { animation:travel 4.5s ease-in-out infinite; }
  .draw { stroke-dasharray:240; stroke-dashoffset:240; animation:draw 5s ease-in-out infinite; }
  .pulse { animation:pulse 3s ease-out infinite; transform-origin:center; }
  .tw { animation:tw 3.4s ease-in-out infinite; }
  .bar { transform-box:fill-box; transform-origin:bottom; animation:wave 1.8s ease-in-out infinite; }
  .flo { animation:flo 6s ease-in-out infinite; }
  @keyframes spin { to { transform:rotate(360deg); } }
  @keyframes travel { 0%,100%{transform:translateX(0)} 50%{transform:translateX(232px)} }
  @keyframes draw { 0%{stroke-dashoffset:240} 55%,100%{stroke-dashoffset:0} }
  @keyframes pulse { 0%{transform:scale(.7);opacity:.7} 70%,100%{transform:scale(1.5);opacity:0} }
  @keyframes tw { 0%,100%{opacity:.3} 50%{opacity:1} }
  @keyframes wave { 0%,100%{transform:scaleY(.42)} 50%{transform:scaleY(1)} }
  @keyframes flo { 0%,100%{transform:translateY(0)} 50%{transform:translateY(-6px)} }
  @media (prefers-reduced-motion:reduce){ *{animation:none!important} .draw{stroke-dashoffset:0} }
</style><rect width="640" height="360" fill="url(#bg4)"/><rect width="640" height="360" fill="url(#gl4)"/><line x1="104" y1="246" x2="29" y2="288" stroke="#5a7bb0" stroke-opacity=".08" stroke-width="1"/><line x1="25" y1="32" x2="52" y2="37" stroke="#5a7bb0" stroke-opacity=".08" stroke-width="1"/><line x1="25" y1="32" x2="43" y2="87" stroke="#5a7bb0" stroke-opacity=".08" stroke-width="1"/><line x1="507" y1="81" x2="472" y2="57" stroke="#5a7bb0" stroke-opacity=".08" stroke-width="1"/><line x1="522" y1="39" x2="447" y2="103" stroke="#5a7bb0" stroke-opacity=".08" stroke-width="1"/><line x1="89" y1="103" x2="43" y2="87" stroke="#5a7bb0" stroke-opacity=".08" stroke-width="1"/><circle class="tw" style="animation-delay:0.4s" cx="298" cy="115" r="1.8" fill="#7fb4d8" fill-opacity=".3"/><circle cx="104" cy="246" r="1.3" fill="#7fb4d8" fill-opacity=".3"/><circle cx="25" cy="32" r="1.8" fill="#7fb4d8" fill-opacity=".3"/><circle class="tw" style="animation-delay:2.0s" cx="405" cy="219" r="1.3" fill="#7fb4d8" fill-opacity=".3"/><circle cx="49" cy="233" r="1.8" fill="#7fb4d8" fill-opacity=".3"/><circle cx="507" cy="81" r="1.8" fill="#7fb4d8" fill-opacity=".3"/><circle class="tw" style="animation-delay:2.0s" cx="522" cy="39" r="1.8" fill="#7fb4d8" fill-opacity=".3"/><circle cx="447" cy="103" r="1.3" fill="#7fb4d8" fill-opacity=".3"/><circle cx="89" cy="103" r="1.8" fill="#7fb4d8" fill-opacity=".3"/><circle class="tw" style="animation-delay:1.3s" cx="52" cy="37" r="1.3" fill="#7fb4d8" fill-opacity=".3"/><circle cx="43" cy="87" r="1.8" fill="#7fb4d8" fill-opacity=".3"/><circle cx="572" cy="324" r="1.8" fill="#7fb4d8" fill-opacity=".3"/><circle class="tw" style="animation-delay:2.8s" cx="29" cy="288" r="1.8" fill="#7fb4d8" fill-opacity=".3"/><circle cx="472" cy="57" r="1.8" fill="#7fb4d8" fill-opacity=".3"/><text class="cat" x="26" y="40">AI · Serverless</text><ellipse cx="300" cy="190" rx="128" ry="80" class="gd" stroke-dasharray="5 9"/>
        <path d="M286 124 q10 -10 22 8 l46 132" class="gs" style="stroke-width:9"/>
        <path d="M298 168 l-44 96" class="gs" style="stroke-width:9"/>
        <rect x="232" y="150" width="26" height="26" rx="5" class="gd"/>
        <g class="spin" style="transform-origin:300px 190px"><circle cx="428" cy="190" r="8" class="gf"/></g>
        <g><rect x="408" y="238" width="40" height="30" rx="6" class="gs"/><path d="M415 238 v-8 a13 13 0 0 1 26 0 v8" class="gs"/><circle cx="428" cy="253" r="3.5" class="gf"/></g></svg>