<svg xmlns="http://www.w3.org/2000/svg" viewBox="0 0 640 360" width="640" height="360" role="img"><defs>
  <linearGradient id="bg7" x1="0" y1="0" x2="1" y2="1">
    <stop offset="0" stop-color="#0b1122"/><stop offset="1" stop-color="#070b15"/></linearGradient>
  <linearGradient id="acc7" x1="0" y1="0" x2="1" y2="1">
    <stop offset="0" stop-color="#38e0c8"/><stop offset="1" stop-color="#4d8dff"/></linearGradient>
  <radialGradient id="gl7" cx="0.5" cy="0.46" r="0.5">
    <stop offset="0" stop-color="#4d8dff" stop-opacity="0.18"/><stop offset="1" stop-color="#4d8dff" stop-opacity="0"/></radialGradient>
</defs>
<style>
  .gs { stroke:url(#acc7); stroke-width:3.2; fill:none; stroke-linecap:round; stroke-linejoin:round; }
  .gd { stroke:#6f87b5; stroke-opacity:.5; stroke-width:2.4; fill:none; stroke-linecap:round; stroke-linejoin:round; }
  .gf { fill:url(#acc7); } .gfd { fill:#6f87b5; fill-opacity:.5; }
  .cat { font-family:'JetBrains Mono', ui-monospace, monospace; font-size:13px; fill:#38e0c8; letter-spacing:1.2px; }
  .spin { animation:spin 14s linear infinite; }
  .travel { animation:travel 4.5s ease-in-out infinite; }
  .draw { stroke-dasharray:240; stroke-dashoffset:240; animation:draw 5s ease-in-out infinite; }
  .pulse { animation:pulse 3s ease-out infinite; transform-origin:center; }
  .tw { animation:tw 3.4s ease-in-out infinite; }
  .bar { transform-box:fill-box; transform-origin:bottom; animation:wave 1.8s ease-in-out infinite; }
  .flo { animation:flo 6s ease-in-out infinite; }
  @keyframes spin { to { transform:rotate(360deg); } }
  @keyframes travel { 0%,100%{transform:translateX(0)} 50%{transform:translateX(232px)} }
  @keyframes draw { 0%{stroke-dashoffset:240} 55%,100%{stroke-dashoffset:0} }
  @keyframes pulse { 0%{transform:scale(.7);opacity:.7} 70%,100%{transform:scale(1.5);opacity:0} }
  @keyframes tw { 0%,100%{opacity:.3} 50%{opacity:1} }
  @keyframes wave { 0%,100%{transform:scaleY(.42)} 50%{transform:scaleY(1)} }
  @keyframes flo { 0%,100%{transform:translateY(0)} 50%{transform:translateY(-6px)} }
  @media (prefers-reduced-motion:reduce){ *{animation:none!important} .draw{stroke-dashoffset:0} }
</style><rect width="640" height="360" fill="url(#bg7)"/><rect width="640" height="360" fill="url(#gl7)"/><line x1="192" y1="200" x2="197" y2="120" stroke="#5a7bb0" stroke-opacity=".08" stroke-width="1"/><line x1="193" y1="238" x2="272" y2="183" stroke="#5a7bb0" stroke-opacity=".08" stroke-width="1"/><line x1="193" y1="238" x2="259" y2="146" stroke="#5a7bb0" stroke-opacity=".08" stroke-width="1"/><line x1="272" y1="183" x2="259" y2="146" stroke="#5a7bb0" stroke-opacity=".08" stroke-width="1"/><line x1="272" y1="183" x2="197" y2="120" stroke="#5a7bb0" stroke-opacity=".08" stroke-width="1"/><line x1="606" y1="52" x2="556" y2="36" stroke="#5a7bb0" stroke-opacity=".08" stroke-width="1"/><circle class="tw" style="animation-delay:1.6s" cx="537" cy="206" r="1.3" fill="#7fb4d8" fill-opacity=".3"/><circle cx="192" cy="200" r="1.8" fill="#7fb4d8" fill-opacity=".3"/><circle cx="193" cy="238" r="1.8" fill="#7fb4d8" fill-opacity=".3"/><circle class="tw" style="animation-delay:2.4s" cx="61" cy="214" r="1.8" fill="#7fb4d8" fill-opacity=".3"/><circle cx="538" cy="59" r="1.3" fill="#7fb4d8" fill-opacity=".3"/><circle cx="272" cy="183" r="1.3" fill="#7fb4d8" fill-opacity=".3"/><circle class="tw" style="animation-delay:0.0s" cx="221" cy="75" r="1.8" fill="#7fb4d8" fill-opacity=".3"/><circle cx="349" cy="295" r="1.8" fill="#7fb4d8" fill-opacity=".3"/><circle cx="259" cy="146" r="1.3" fill="#7fb4d8" fill-opacity=".3"/><circle class="tw" style="animation-delay:2.9s" cx="606" cy="52" r="1.3" fill="#7fb4d8" fill-opacity=".3"/><circle cx="58" cy="55" r="1.8" fill="#7fb4d8" fill-opacity=".3"/><circle cx="112" cy="333" r="1.8" fill="#7fb4d8" fill-opacity=".3"/><circle class="tw" style="animation-delay:0.6s" cx="197" cy="120" r="1.8" fill="#7fb4d8" fill-opacity=".3"/><circle cx="556" cy="36" r="1.8" fill="#7fb4d8" fill-opacity=".3"/><text class="cat" x="26" y="40">AI · Agents</text><g class="flo"><path d="M250 110 h140 a22 22 0 0 1 22 22 v66 a22 22 0 0 1 -22 22 h-96 l-26 24 v-24 h-18 a22 22 0 0 1 -22 -22 v-66 a22 22 0 0 1 22 -22 z" class="gs"/>
        <circle cx="320" cy="165" r="26" class="gd pulse"/>
        <rect x="312" y="143" width="16" height="44" rx="4" class="gf"/><rect x="298" y="157" width="44" height="16" rx="4" class="gf"/></g>
        <circle cx="430" cy="250" r="7" class="gf"/><circle cx="392" cy="276" r="5" class="gfd"/><circle cx="466" cy="270" r="5" class="gfd"/>
        <line x1="430" y1="250" x2="392" y2="276" class="gd"/><line x1="430" y1="250" x2="466" y2="270" class="gd"/></svg>