<svg xmlns="http://www.w3.org/2000/svg" viewBox="0 0 640 360" width="640" height="360" role="img"><defs>
  <linearGradient id="bg3" x1="0" y1="0" x2="1" y2="1">
    <stop offset="0" stop-color="#0b1122"/><stop offset="1" stop-color="#070b15"/></linearGradient>
  <linearGradient id="acc3" x1="0" y1="0" x2="1" y2="1">
    <stop offset="0" stop-color="#38e0c8"/><stop offset="1" stop-color="#4d8dff"/></linearGradient>
  <radialGradient id="gl3" cx="0.5" cy="0.46" r="0.5">
    <stop offset="0" stop-color="#4d8dff" stop-opacity="0.18"/><stop offset="1" stop-color="#4d8dff" stop-opacity="0"/></radialGradient>
</defs>
<style>
  .gs { stroke:url(#acc3); stroke-width:3.2; fill:none; stroke-linecap:round; stroke-linejoin:round; }
  .gd { stroke:#6f87b5; stroke-opacity:.5; stroke-width:2.4; fill:none; stroke-linecap:round; stroke-linejoin:round; }
  .gf { fill:url(#acc3); } .gfd { fill:#6f87b5; fill-opacity:.5; }
  .cat { font-family:'JetBrains Mono', ui-monospace, monospace; font-size:13px; fill:#38e0c8; letter-spacing:1.2px; }
  .spin { animation:spin 14s linear infinite; }
  .travel { animation:travel 4.5s ease-in-out infinite; }
  .draw { stroke-dasharray:240; stroke-dashoffset:240; animation:draw 5s ease-in-out infinite; }
  .pulse { animation:pulse 3s ease-out infinite; transform-origin:center; }
  .tw { animation:tw 3.4s ease-in-out infinite; }
  .bar { transform-box:fill-box; transform-origin:bottom; animation:wave 1.8s ease-in-out infinite; }
  .flo { animation:flo 6s ease-in-out infinite; }
  @keyframes spin { to { transform:rotate(360deg); } }
  @keyframes travel { 0%,100%{transform:translateX(0)} 50%{transform:translateX(232px)} }
  @keyframes draw { 0%{stroke-dashoffset:240} 55%,100%{stroke-dashoffset:0} }
  @keyframes pulse { 0%{transform:scale(.7);opacity:.7} 70%,100%{transform:scale(1.5);opacity:0} }
  @keyframes tw { 0%,100%{opacity:.3} 50%{opacity:1} }
  @keyframes wave { 0%,100%{transform:scaleY(.42)} 50%{transform:scaleY(1)} }
  @keyframes flo { 0%,100%{transform:translateY(0)} 50%{transform:translateY(-6px)} }
  @media (prefers-reduced-motion:reduce){ *{animation:none!important} .draw{stroke-dashoffset:0} }
</style><rect width="640" height="360" fill="url(#bg3)"/><rect width="640" height="360" fill="url(#gl3)"/><line x1="327" y1="115" x2="275" y2="141" stroke="#5a7bb0" stroke-opacity=".08" stroke-width="1"/><line x1="230" y1="45" x2="213" y2="147" stroke="#5a7bb0" stroke-opacity=".08" stroke-width="1"/><line x1="532" y1="198" x2="500" y2="120" stroke="#5a7bb0" stroke-opacity=".08" stroke-width="1"/><line x1="166" y1="89" x2="165" y2="86" stroke="#5a7bb0" stroke-opacity=".08" stroke-width="1"/><circle class="tw" style="animation-delay:0.5s" cx="327" cy="115" r="1.3" fill="#7fb4d8" fill-opacity=".3"/><circle cx="131" cy="327" r="1.3" fill="#7fb4d8" fill-opacity=".3"/><circle cx="377" cy="188" r="1.3" fill="#7fb4d8" fill-opacity=".3"/><circle class="tw" style="animation-delay:1.9s" cx="230" cy="45" r="1.8" fill="#7fb4d8" fill-opacity=".3"/><circle cx="532" cy="198" r="1.3" fill="#7fb4d8" fill-opacity=".3"/><circle cx="500" cy="120" r="1.3" fill="#7fb4d8" fill-opacity=".3"/><circle class="tw" style="animation-delay:1.2s" cx="382" cy="189" r="1.3" fill="#7fb4d8" fill-opacity=".3"/><circle cx="275" cy="141" r="1.3" fill="#7fb4d8" fill-opacity=".3"/><circle cx="493" cy="257" r="1.8" fill="#7fb4d8" fill-opacity=".3"/><circle class="tw" style="animation-delay:0.2s" cx="213" cy="147" r="1.8" fill="#7fb4d8" fill-opacity=".3"/><circle cx="511" cy="275" r="1.8" fill="#7fb4d8" fill-opacity=".3"/><circle cx="166" cy="89" r="1.8" fill="#7fb4d8" fill-opacity=".3"/><circle class="tw" style="animation-delay:1.9s" cx="165" cy="86" r="1.8" fill="#7fb4d8" fill-opacity=".3"/><circle cx="493" cy="56" r="1.3" fill="#7fb4d8" fill-opacity=".3"/><text class="cat" x="26" y="40">Cloud · Serverless</text><rect x="244" y="104" width="156" height="150" rx="12" class="gd" transform="rotate(7 322 179)"/>
        <g class="flo"><rect x="220" y="116" width="156" height="142" rx="12" class="gs"/>
        <line x1="240" y1="146" x2="356" y2="146" class="gd"/>
        <line x1="240" y1="172" x2="356" y2="172" class="gd"/>
        <line x1="240" y1="196" x2="320" y2="196" class="gd"/>
        <rect x="240" y="216" width="20" height="20" rx="5" class="gs"/><path d="M245 226 l4 4 l7 -9" class="gs"/></g>
        <circle cx="378" cy="118" r="17" class="gf"/><path d="M378 110 v16 M370 118 h16" stroke="#06101f" stroke-width="3" stroke-linecap="round"/></svg>