<svg xmlns="http://www.w3.org/2000/svg" viewBox="0 0 640 360" width="640" height="360" role="img"><defs>
  <linearGradient id="bg8" x1="0" y1="0" x2="1" y2="1">
    <stop offset="0" stop-color="#0b1122"/><stop offset="1" stop-color="#070b15"/></linearGradient>
  <linearGradient id="acc8" x1="0" y1="0" x2="1" y2="1">
    <stop offset="0" stop-color="#38e0c8"/><stop offset="1" stop-color="#4d8dff"/></linearGradient>
  <radialGradient id="gl8" cx="0.5" cy="0.46" r="0.5">
    <stop offset="0" stop-color="#4d8dff" stop-opacity="0.18"/><stop offset="1" stop-color="#4d8dff" stop-opacity="0"/></radialGradient>
</defs>
<style>
  .gs { stroke:url(#acc8); stroke-width:3.2; fill:none; stroke-linecap:round; stroke-linejoin:round; }
  .gd { stroke:#6f87b5; stroke-opacity:.5; stroke-width:2.4; fill:none; stroke-linecap:round; stroke-linejoin:round; }
  .gf { fill:url(#acc8); } .gfd { fill:#6f87b5; fill-opacity:.5; }
  .cat { font-family:'JetBrains Mono', ui-monospace, monospace; font-size:13px; fill:#38e0c8; letter-spacing:1.2px; }
  .spin { animation:spin 14s linear infinite; }
  .travel { animation:travel 4.5s ease-in-out infinite; }
  .draw { stroke-dasharray:240; stroke-dashoffset:240; animation:draw 5s ease-in-out infinite; }
  .pulse { animation:pulse 3s ease-out infinite; transform-origin:center; }
  .tw { animation:tw 3.4s ease-in-out infinite; }
  .bar { transform-box:fill-box; transform-origin:bottom; animation:wave 1.8s ease-in-out infinite; }
  .flo { animation:flo 6s ease-in-out infinite; }
  @keyframes spin { to { transform:rotate(360deg); } }
  @keyframes travel { 0%,100%{transform:translateX(0)} 50%{transform:translateX(232px)} }
  @keyframes draw { 0%{stroke-dashoffset:240} 55%,100%{stroke-dashoffset:0} }
  @keyframes pulse { 0%{transform:scale(.7);opacity:.7} 70%,100%{transform:scale(1.5);opacity:0} }
  @keyframes tw { 0%,100%{opacity:.3} 50%{opacity:1} }
  @keyframes wave { 0%,100%{transform:scaleY(.42)} 50%{transform:scaleY(1)} }
  @keyframes flo { 0%,100%{transform:translateY(0)} 50%{transform:translateY(-6px)} }
  @media (prefers-reduced-motion:reduce){ *{animation:none!important} .draw{stroke-dashoffset:0} }
</style><rect width="640" height="360" fill="url(#bg8)"/><rect width="640" height="360" fill="url(#gl8)"/><line x1="287" y1="135" x2="380" y2="196" stroke="#5a7bb0" stroke-opacity=".08" stroke-width="1"/><line x1="86" y1="220" x2="27" y2="252" stroke="#5a7bb0" stroke-opacity=".08" stroke-width="1"/><line x1="581" y1="277" x2="603" y2="259" stroke="#5a7bb0" stroke-opacity=".08" stroke-width="1"/><line x1="503" y1="156" x2="413" y2="217" stroke="#5a7bb0" stroke-opacity=".08" stroke-width="1"/><line x1="503" y1="156" x2="507" y2="208" stroke="#5a7bb0" stroke-opacity=".08" stroke-width="1"/><line x1="503" y1="156" x2="559" y2="247" stroke="#5a7bb0" stroke-opacity=".08" stroke-width="1"/><line x1="413" y1="217" x2="507" y2="208" stroke="#5a7bb0" stroke-opacity=".08" stroke-width="1"/><line x1="507" y1="208" x2="559" y2="247" stroke="#5a7bb0" stroke-opacity=".08" stroke-width="1"/><line x1="507" y1="208" x2="393" y2="196" stroke="#5a7bb0" stroke-opacity=".08" stroke-width="1"/><line x1="603" y1="259" x2="559" y2="247" stroke="#5a7bb0" stroke-opacity=".08" stroke-width="1"/><line x1="380" y1="196" x2="393" y2="196" stroke="#5a7bb0" stroke-opacity=".08" stroke-width="1"/><circle class="tw" style="animation-delay:2.3s" cx="287" cy="135" r="1.3" fill="#7fb4d8" fill-opacity=".3"/><circle cx="86" cy="220" r="1.3" fill="#7fb4d8" fill-opacity=".3"/><circle cx="581" cy="277" r="1.3" fill="#7fb4d8" fill-opacity=".3"/><circle class="tw" style="animation-delay:1.3s" cx="485" cy="112" r="1.8" fill="#7fb4d8" fill-opacity=".3"/><circle cx="617" cy="81" r="1.3" fill="#7fb4d8" fill-opacity=".3"/><circle cx="503" cy="156" r="1.3" fill="#7fb4d8" fill-opacity=".3"/><circle class="tw" style="animation-delay:2.7s" cx="413" cy="217" r="1.3" fill="#7fb4d8" fill-opacity=".3"/><circle cx="507" cy="208" r="1.8" fill="#7fb4d8" fill-opacity=".3"/><circle cx="603" cy="259" r="1.3" fill="#7fb4d8" fill-opacity=".3"/><circle class="tw" style="animation-delay:1.0s" cx="380" cy="196" r="1.3" fill="#7fb4d8" fill-opacity=".3"/><circle cx="559" cy="247" r="1.3" fill="#7fb4d8" fill-opacity=".3"/><circle cx="27" cy="252" r="1.8" fill="#7fb4d8" fill-opacity=".3"/><circle class="tw" style="animation-delay:1.1s" cx="393" cy="196" r="1.8" fill="#7fb4d8" fill-opacity=".3"/><circle cx="238" cy="308" r="1.3" fill="#7fb4d8" fill-opacity=".3"/><text class="cat" x="26" y="40">AI · SaaS Platform</text><rect class="bar" style="animation-delay:0.00s" x="206" y="206" width="9" height="40" rx="4.5" fill="url(#acc8)"/><rect class="bar" style="animation-delay:0.14s" x="224" y="176" width="9" height="70" rx="4.5" fill="url(#acc8)"/><rect class="bar" style="animation-delay:0.28s" x="242" y="194" width="9" height="52" rx="4.5" fill="url(#acc8)"/><rect class="bar" style="animation-delay:0.42s" x="260" y="160" width="9" height="86" rx="4.5" fill="url(#acc8)"/><rect class="bar" style="animation-delay:0.56s" x="278" y="186" width="9" height="60" rx="4.5" fill="url(#acc8)"/><rect class="bar" style="animation-delay:0.70s" x="296" y="172" width="9" height="74" rx="4.5" fill="url(#acc8)"/><rect class="bar" style="animation-delay:0.84s" x="314" y="200" width="9" height="46" rx="4.5" fill="url(#acc8)"/><path d="M338 206 h26 m-9 -7 l9 7 l-9 7" class="gd"/><rect x="374" y="120" width="110" height="150" rx="12" class="gd"/><circle cx="392" cy="150" r="4" class="gf"/><line x1="404" y1="150" x2="466" y2="150" class="gd"/><circle cx="392" cy="178" r="4" class="gf"/><line x1="404" y1="178" x2="466" y2="178" class="gd"/><circle cx="392" cy="206" r="4" class="gf"/><line x1="404" y1="206" x2="452" y2="206" class="gd"/><path d="M388 236 l7 7 l12 -15" class="gs"/></svg>